<svg width="1171" height="410" viewBox="0 0 1171 410" fill="none" xmlns="http://www.w3.org/2000/svg">
<g filter="url(#filter0_d_50_30)">
<g clip-path="url(#clip0_50_30)">
<path d="M315.049 143.353C315.049 37.3535 -3.95099 -92.1465 26.5491 195.853C45.2158 306.853 163.649 477.353 488.049 279.353C893.549 31.8535 951.549 -58.6465 1100.05 121.353C1218.85 265.353 1078.55 346.02 993.549 368.353C952.049 378.353 876.349 396.953 919.549 221.353" stroke="black" stroke-width="41" stroke-linecap="round"/>
<path d="M315.049 143.354C361.883 86.3535 455.349 -12.3465 454.549 48.8535C453.549 125.354 399.049 186.354 505.049 273.354C589.849 342.954 777.383 374.354 860.549 381.354" stroke="black" stroke-width="41" stroke-linecap="round"/>
<path d="M929.821 179.428C928.723 179.227 927.71 178.7 926.915 177.916C915.131 166.35 910.448 159.036 907.948 154.542C902.621 144.962 900.901 135.807 902.677 126.554C904.714 115.95 914.806 108.858 925.174 110.741C932.713 112.111 937.163 117.306 939.561 121.395C939.638 121.523 939.741 121.634 939.863 121.719C939.986 121.804 940.125 121.862 940.272 121.889C940.419 121.916 940.57 121.911 940.715 121.874C940.859 121.837 940.995 121.77 941.111 121.676C944.795 118.688 950.787 115.394 958.326 116.763C968.694 118.646 975.647 128.835 973.825 139.479C972.233 148.767 967.4 156.731 959.048 163.825C955.127 167.154 948.171 172.353 933.072 179.036C932.052 179.49 930.919 179.626 929.821 179.428Z" fill="black"/>
<path d="M524.037 135.502C525.625 133.315 528.933 133.907 529.749 136.357L529.857 136.76L531.53 144.93C532.991 152.062 536.579 158.566 541.813 163.572L542.698 164.393L547.816 168.962C548.223 169.324 548.533 169.784 548.719 170.299C548.904 170.813 548.958 171.367 548.877 171.91C548.795 172.452 548.581 172.966 548.252 173.404C547.924 173.843 547.492 174.191 546.996 174.419L546.608 174.568L540.057 176.615C533.145 178.779 527.046 183.016 522.575 188.76L521.847 189.728L516.95 196.478C515.362 198.666 512.054 198.074 511.237 195.623L511.13 195.22L509.457 187.05C507.996 179.919 504.408 173.415 499.174 168.408L498.289 167.588L493.171 163.019C492.764 162.656 492.454 162.197 492.268 161.682C492.083 161.167 492.029 160.613 492.11 160.071C492.192 159.528 492.406 159.015 492.735 158.576C493.063 158.138 493.495 157.789 493.991 157.562L494.379 157.413L500.93 155.365C507.842 153.202 513.941 148.965 518.412 143.221L519.139 142.252L524.037 135.502Z" fill="black"/>
</g>
</g>
<defs>
<filter id="filter0_d_50_30" x="-4.57764e-05" y="0" width="1171" height="410" filterUnits="userSpaceOnUse" color-interpolation-filters="sRGB">
<feFlood flood-opacity="0" result="BackgroundImageFix"/>
<feColorMatrix in="SourceAlpha" type="matrix" values="0 0 0 0 0 0 0 0 0 0 0 0 0 0 0 0 0 0 127 0" result="hardAlpha"/>
<feOffset dy="4"/>
<feGaussianBlur stdDeviation="2"/>
<feComposite in2="hardAlpha" operator="out"/>
<feColorMatrix type="matrix" values="0 0 0 0 0 0 0 0 0 0 0 0 0 0 0 0 0 0 0.25 0"/>
<feBlend mode="normal" in2="BackgroundImageFix" result="effect1_dropShadow_50_30"/>
<feBlend mode="normal" in="SourceGraphic" in2="effect1_dropShadow_50_30" result="shape"/>
</filter>
<clipPath id="clip0_50_30">
<rect width="1163" height="402" fill="white" transform="translate(3.99995)"/>
</clipPath>
</defs>
</svg>
